<svg width="8" height="8" viewBox="0 0 8 8" fill="none" xmlns="http://www.w3.org/2000/svg">
<path d="M7.33189 6.15172L5.40886 4.17769C5.2272 3.99206 5.2272 3.69324 5.40886 3.50761L7.15022 1.71921C7.41165 1.45208 7.42937 1.0129 7.17238 0.741249C6.91095 0.465065 6.48115 0.460538 6.21973 0.732194L4.46507 2.5387C4.28341 2.72434 3.99096 2.72434 3.8093 2.5387L2.06794 0.750304C1.81094 0.483176 1.38557 0.465065 1.11972 0.723138C0.84943 0.990267 0.84943 1.42944 1.11085 1.7011L2.86551 3.50308C3.04717 3.68871 3.04717 3.99206 2.86551 4.17317L0.955772 6.13814C0.694347 6.40527 0.676623 6.84445 0.933617 7.1161C1.19061 7.38776 1.62484 7.39681 1.88627 7.12516L3.8093 5.1466C3.99096 4.96097 4.28341 4.96097 4.46507 5.1466L6.3881 7.12063C6.64953 7.38776 7.07047 7.38776 7.33189 7.12063C7.63319 6.82181 7.59332 6.42338 7.33189 6.15172Z" fill="#8A8A8A"/>
</svg>
