<svg width="15" height="15" viewBox="0 0 15 15" fill="none" xmlns="http://www.w3.org/2000/svg">
<path d="M2.44128 12.6872C2.67636 12.6872 2.86694 12.4967 2.86694 12.2616C2.86694 12.0265 2.67636 11.8359 2.44128 11.8359C2.2062 11.8359 2.01562 12.0265 2.01562 12.2616C2.01562 12.4967 2.2062 12.6872 2.44128 12.6872Z" fill="white"/>
<path d="M3.36316 11.7634C3.59824 11.7634 3.78881 11.5728 3.78881 11.3378C3.78881 11.1027 3.59824 10.9121 3.36316 10.9121C3.12807 10.9121 2.9375 11.1027 2.9375 11.3378C2.9375 11.5728 3.12807 11.7634 3.36316 11.7634Z" fill="white"/>
<path d="M4.30847 10.8337C4.54355 10.8337 4.73412 10.6432 4.73412 10.4081C4.73412 10.173 4.54355 9.98242 4.30847 9.98242C4.07338 9.98242 3.88281 10.173 3.88281 10.4081C3.88281 10.6432 4.07338 10.8337 4.30847 10.8337Z" fill="white"/>
<path d="M5.23816 9.906C5.47324 9.906 5.66381 9.71543 5.66381 9.48034C5.66381 9.24526 5.47324 9.05469 5.23816 9.05469C5.00307 9.05469 4.8125 9.24526 4.8125 9.48034C4.8125 9.71543 5.00307 9.906 5.23816 9.906Z" fill="white"/>
<path d="M6.17566 8.97826C6.41074 8.97826 6.60131 8.78769 6.60131 8.55261C6.60131 8.31753 6.41074 8.12695 6.17566 8.12695C5.94057 8.12695 5.75 8.31753 5.75 8.55261C5.75 8.78769 5.94057 8.97826 6.17566 8.97826Z" fill="white"/>
<path d="M7.09753 8.05248C7.33261 8.05248 7.52319 7.86191 7.52319 7.62683C7.52319 7.39174 7.33261 7.20117 7.09753 7.20117C6.86245 7.20117 6.67188 7.39174 6.67188 7.62683C6.67188 7.86191 6.86245 8.05248 7.09753 8.05248Z" fill="white"/>
<path d="M8.03503 7.12475C8.27011 7.12475 8.46069 6.93418 8.46069 6.69909C8.46069 6.46401 8.27011 6.27344 8.03503 6.27344C7.79995 6.27344 7.60938 6.46401 7.60938 6.69909C7.60938 6.93418 7.79995 7.12475 8.03503 7.12475Z" fill="white"/>
<path d="M8.96472 6.19897C9.1998 6.19897 9.39038 6.0084 9.39038 5.77331C9.39038 5.53823 9.1998 5.34766 8.96472 5.34766C8.72963 5.34766 8.53906 5.53823 8.53906 5.77331C8.53906 6.0084 8.72963 6.19897 8.96472 6.19897Z" fill="white"/>
<path d="M9.90222 5.26733C10.1373 5.26733 10.3279 5.07675 10.3279 4.84167C10.3279 4.60659 10.1373 4.41602 9.90222 4.41602C9.66713 4.41602 9.47656 4.60659 9.47656 4.84167C9.47656 5.07675 9.66713 5.26733 9.90222 5.26733Z" fill="white"/>
<path d="M10.8319 4.34155C11.067 4.34155 11.2576 4.15097 11.2576 3.91589C11.2576 3.68081 11.067 3.49023 10.8319 3.49023C10.5968 3.49023 10.4062 3.68081 10.4062 3.91589C10.4062 4.15097 10.5968 4.34155 10.8319 4.34155Z" fill="white"/>
<path d="M11.7694 3.41381C12.0045 3.41381 12.1951 3.22324 12.1951 2.98816C12.1951 2.75307 12.0045 2.5625 11.7694 2.5625C11.5343 2.5625 11.3438 2.75307 11.3438 2.98816C11.3438 3.22324 11.5343 3.41381 11.7694 3.41381Z" fill="white"/>
<path d="M2.44909 3.38647C2.68418 3.38647 2.87475 3.1959 2.87475 2.96081C2.87475 2.72573 2.68418 2.53516 2.44909 2.53516C2.21401 2.53516 2.02344 2.72573 2.02344 2.96081C2.02344 3.1959 2.21401 3.38647 2.44909 3.38647Z" fill="white"/>
<path d="M3.37097 4.31616C3.60605 4.31616 3.79662 4.12558 3.79662 3.8905C3.79662 3.65542 3.60605 3.46484 3.37097 3.46484C3.13589 3.46484 2.94531 3.65542 2.94531 3.8905C2.94531 4.12558 3.13589 4.31616 3.37097 4.31616Z" fill="white"/>
<path d="M4.30847 5.24975C4.54355 5.24975 4.73412 5.05918 4.73412 4.82409C4.73412 4.58901 4.54355 4.39844 4.30847 4.39844C4.07338 4.39844 3.88281 4.58901 3.88281 4.82409C3.88281 5.05918 4.07338 5.24975 4.30847 5.24975Z" fill="white"/>
<path d="M5.23034 6.18334C5.46543 6.18334 5.656 5.99277 5.656 5.75769C5.656 5.5226 5.46543 5.33203 5.23034 5.33203C4.99526 5.33203 4.80469 5.5226 4.80469 5.75769C4.80469 5.99277 4.99526 6.18334 5.23034 6.18334Z" fill="white"/>
<path d="M6.14441 7.11694C6.37949 7.11694 6.57006 6.92636 6.57006 6.69128C6.57006 6.4562 6.37949 6.26562 6.14441 6.26562C5.90932 6.26562 5.71875 6.4562 5.71875 6.69128C5.71875 6.92636 5.90932 7.11694 6.14441 7.11694Z" fill="white"/>
<path d="M7.09753 8.04662C7.33261 8.04662 7.52319 7.85605 7.52319 7.62097C7.52319 7.38589 7.33261 7.19531 7.09753 7.19531C6.86245 7.19531 6.67188 7.38589 6.67188 7.62097C6.67188 7.85605 6.86245 8.04662 7.09753 8.04662Z" fill="white"/>
<path d="M8.00378 8.98217C8.23887 8.98217 8.42944 8.7916 8.42944 8.55651C8.42944 8.32143 8.23887 8.13086 8.00378 8.13086C7.7687 8.13086 7.57812 8.32143 7.57812 8.55651C7.57812 8.7916 7.7687 8.98217 8.00378 8.98217Z" fill="white"/>
<path d="M8.94128 9.91186C9.17636 9.91186 9.36694 9.72129 9.36694 9.4862C9.36694 9.25112 9.17636 9.06055 8.94128 9.06055C8.7062 9.06055 8.51562 9.25112 8.51562 9.4862C8.51562 9.72129 8.7062 9.91186 8.94128 9.91186Z" fill="white"/>
<path d="M9.87878 10.8455C10.1139 10.8455 10.3044 10.6549 10.3044 10.4198C10.3044 10.1847 10.1139 9.99414 9.87878 9.99414C9.6437 9.99414 9.45312 10.1847 9.45312 10.4198C9.45312 10.6549 9.6437 10.8455 9.87878 10.8455Z" fill="white"/>
<path d="M10.7928 11.779C11.0279 11.779 11.2185 11.5885 11.2185 11.3534C11.2185 11.1183 11.0279 10.9277 10.7928 10.9277C10.5578 10.9277 10.3672 11.1183 10.3672 11.3534C10.3672 11.5885 10.5578 11.779 10.7928 11.779Z" fill="white"/>
<path d="M11.7225 12.7068C11.9576 12.7068 12.1482 12.5162 12.1482 12.2811C12.1482 12.046 11.9576 11.8555 11.7225 11.8555C11.4874 11.8555 11.2969 12.046 11.2969 12.2811C11.2969 12.5162 11.4874 12.7068 11.7225 12.7068Z" fill="white"/>
<path d="M0.519405 8.03295C0.754488 8.03295 0.945062 7.84238 0.945062 7.6073C0.945062 7.37221 0.754488 7.18164 0.519405 7.18164C0.284322 7.18164 0.09375 7.37221 0.09375 7.6073C0.09375 7.84238 0.284322 8.03295 0.519405 8.03295Z" fill="white"/>
<path d="M1.83972 8.03881C2.0748 8.03881 2.26537 7.84824 2.26537 7.61316C2.26537 7.37807 2.0748 7.1875 1.83972 7.1875C1.60464 7.1875 1.41406 7.37807 1.41406 7.61316C1.41406 7.84824 1.60464 8.03881 1.83972 8.03881Z" fill="white"/>
<path d="M3.14441 8.04076C3.37949 8.04076 3.57006 7.85019 3.57006 7.61511C3.57006 7.38003 3.37949 7.18945 3.14441 7.18945C2.90932 7.18945 2.71875 7.38003 2.71875 7.61511C2.71875 7.85019 2.90932 8.04076 3.14441 8.04076Z" fill="white"/>
<path d="M4.45691 8.04272C4.69199 8.04272 4.88256 7.85214 4.88256 7.61706C4.88256 7.38198 4.69199 7.19141 4.45691 7.19141C4.22182 7.19141 4.03125 7.38198 4.03125 7.61706C4.03125 7.85214 4.22182 8.04272 4.45691 8.04272Z" fill="white"/>
<path d="M9.72253 8.05834C9.95761 8.05834 10.1482 7.86777 10.1482 7.63269C10.1482 7.3976 9.95761 7.20703 9.72253 7.20703C9.48745 7.20703 9.29688 7.3976 9.29688 7.63269C9.29688 7.86777 9.48745 8.05834 9.72253 8.05834Z" fill="white"/>
<path d="M11.0507 8.0603C11.2857 8.0603 11.4763 7.86972 11.4763 7.63464C11.4763 7.39956 11.2857 7.20898 11.0507 7.20898C10.8156 7.20898 10.625 7.39956 10.625 7.63464C10.625 7.86972 10.8156 8.0603 11.0507 8.0603Z" fill="white"/>
<path d="M12.3475 8.0642C12.5826 8.0642 12.7732 7.87363 12.7732 7.63855C12.7732 7.40346 12.5826 7.21289 12.3475 7.21289C12.1124 7.21289 11.9219 7.40346 11.9219 7.63855C11.9219 7.87363 12.1124 8.0642 12.3475 8.0642Z" fill="white"/>
<path d="M13.6678 8.06616C13.9029 8.06616 14.0935 7.87558 14.0935 7.6405C14.0935 7.40542 13.9029 7.21484 13.6678 7.21484C13.4328 7.21484 13.2422 7.40542 13.2422 7.6405C13.2422 7.87558 13.4328 8.06616 13.6678 8.06616Z" fill="white"/>
<path d="M7.11316 1.45092C7.34824 1.45092 7.53881 1.26035 7.53881 1.02527C7.53881 0.790182 7.34824 0.599609 7.11316 0.599609C6.87807 0.599609 6.6875 0.790182 6.6875 1.02527C6.6875 1.26035 6.87807 1.45092 7.11316 1.45092Z" fill="white"/>
<path d="M7.11316 2.76342C7.34824 2.76342 7.53881 2.57285 7.53881 2.33777C7.53881 2.10268 7.34824 1.91211 7.11316 1.91211C6.87807 1.91211 6.6875 2.10268 6.6875 2.33777C6.6875 2.57285 6.87807 2.76342 7.11316 2.76342Z" fill="white"/>
<path d="M7.09753 4.07983C7.33261 4.07983 7.52319 3.88925 7.52319 3.65417C7.52319 3.41909 7.33261 3.22852 7.09753 3.22852C6.86245 3.22852 6.67188 3.41909 6.67188 3.65417C6.67188 3.88925 6.86245 4.07983 7.09753 4.07983Z" fill="white"/>
<path d="M7.09753 5.39623C7.33261 5.39623 7.52319 5.20566 7.52319 4.97058C7.52319 4.73549 7.33261 4.54492 7.09753 4.54492C6.86245 4.54492 6.67188 4.73549 6.67188 4.97058C6.67188 5.20566 6.86245 5.39623 7.09753 5.39623Z" fill="white"/>
<path d="M7.08191 10.656C7.31699 10.656 7.50756 10.4654 7.50756 10.2303C7.50756 9.99526 7.31699 9.80469 7.08191 9.80469C6.84682 9.80469 6.65625 9.99526 6.65625 10.2303C6.65625 10.4654 6.84682 10.656 7.08191 10.656Z" fill="white"/>
<path d="M7.08191 11.9685C7.31699 11.9685 7.50756 11.7779 7.50756 11.5428C7.50756 11.3078 7.31699 11.1172 7.08191 11.1172C6.84682 11.1172 6.65625 11.3078 6.65625 11.5428C6.65625 11.7779 6.84682 11.9685 7.08191 11.9685Z" fill="white"/>
<path d="M7.08191 13.2849C7.31699 13.2849 7.50756 13.0943 7.50756 12.8592C7.50756 12.6242 7.31699 12.4336 7.08191 12.4336C6.84682 12.4336 6.65625 12.6242 6.65625 12.8592C6.65625 13.0943 6.84682 13.2849 7.08191 13.2849Z" fill="white"/>
<path d="M7.06628 14.5994C7.30137 14.5994 7.49194 14.4088 7.49194 14.1737C7.49194 13.9386 7.30137 13.748 7.06628 13.748C6.8312 13.748 6.64062 13.9386 6.64062 14.1737C6.64062 14.4088 6.8312 14.5994 7.06628 14.5994Z" fill="white"/>
</svg>
