<svg width="25" height="25" viewBox="0 0 25 25" fill="none" xmlns="http://www.w3.org/2000/svg">
<path d="M4.18169 21.5858C4.60133 21.5858 4.94151 21.2456 4.94151 20.826C4.94151 20.4063 4.60133 20.0662 4.18169 20.0662C3.76206 20.0662 3.42188 20.4063 3.42188 20.826C3.42188 21.2456 3.76206 21.5858 4.18169 21.5858Z" fill="#181818"/>
<path d="M5.85357 19.9288C6.2732 19.9288 6.61338 19.5886 6.61338 19.169C6.61338 18.7494 6.2732 18.4092 5.85357 18.4092C5.43393 18.4092 5.09375 18.7494 5.09375 19.169C5.09375 19.5886 5.43393 19.9288 5.85357 19.9288Z" fill="#181818"/>
<path d="M7.50982 18.2735C7.92945 18.2735 8.26963 17.9334 8.26963 17.5137C8.26963 17.0941 7.92945 16.7539 7.50982 16.7539C7.09018 16.7539 6.75 17.0941 6.75 17.5137C6.75 17.9334 7.09018 18.2735 7.50982 18.2735Z" fill="#181818"/>
<path d="M9.18169 16.6163C9.60133 16.6163 9.94151 16.2761 9.94151 15.8565C9.94151 15.4369 9.60133 15.0967 9.18169 15.0967C8.76206 15.0967 8.42188 15.4369 8.42188 15.8565C8.42188 16.2761 8.76206 16.6163 9.18169 16.6163Z" fill="#181818"/>
<path d="M10.8379 14.9613C11.2576 14.9613 11.5978 14.6211 11.5978 14.2015C11.5978 13.7818 11.2576 13.4417 10.8379 13.4417C10.4183 13.4417 10.0781 13.7818 10.0781 14.2015C10.0781 14.6211 10.4183 14.9613 10.8379 14.9613Z" fill="#181818"/>
<path d="M12.5098 13.3041C12.9295 13.3041 13.2696 12.9639 13.2696 12.5442C13.2696 12.1246 12.9295 11.7844 12.5098 11.7844C12.0902 11.7844 11.75 12.1246 11.75 12.5442C11.75 12.9639 12.0902 13.3041 12.5098 13.3041Z" fill="#181818"/>
<path d="M14.1661 11.6468C14.5857 11.6468 14.9259 11.3066 14.9259 10.887C14.9259 10.4674 14.5857 10.1272 14.1661 10.1272C13.7464 10.1272 13.4062 10.4674 13.4062 10.887C13.4062 11.3066 13.7464 11.6468 14.1661 11.6468Z" fill="#181818"/>
<path d="M15.8379 9.9918C16.2576 9.9918 16.5978 9.65162 16.5978 9.23198C16.5978 8.81235 16.2576 8.47217 15.8379 8.47217C15.4183 8.47217 15.0781 8.81235 15.0781 9.23198C15.0781 9.65162 15.4183 9.9918 15.8379 9.9918Z" fill="#181818"/>
<path d="M17.4942 8.33457C17.9138 8.33457 18.254 7.99439 18.254 7.57476C18.254 7.15512 17.9138 6.81494 17.4942 6.81494C17.0746 6.81494 16.7344 7.15512 16.7344 7.57476C16.7344 7.99439 17.0746 8.33457 17.4942 8.33457Z" fill="#181818"/>
<path d="M19.1661 6.67954C19.5857 6.67954 19.9259 6.33936 19.9259 5.91973C19.9259 5.50009 19.5857 5.15991 19.1661 5.15991C18.7464 5.15991 18.4062 5.50009 18.4062 5.91973C18.4062 6.33936 18.7464 6.67954 19.1661 6.67954Z" fill="#181818"/>
<path d="M20.8301 5.02232C21.2498 5.02232 21.5899 4.68214 21.5899 4.2625C21.5899 3.84287 21.2498 3.50269 20.8301 3.50269C20.4105 3.50269 20.0703 3.84287 20.0703 4.2625C20.0703 4.68214 20.4105 5.02232 20.8301 5.02232Z" fill="#181818"/>
<path d="M4.22075 4.98008C4.64039 4.98008 4.98057 4.6399 4.98057 4.22027C4.98057 3.80063 4.64039 3.46045 4.22075 3.46045C3.80112 3.46045 3.46094 3.80063 3.46094 4.22027C3.46094 4.6399 3.80112 4.98008 4.22075 4.98008Z" fill="#181818"/>
<path d="M5.87701 6.64365C6.29664 6.64365 6.63682 6.30347 6.63682 5.88384C6.63682 5.46421 6.29664 5.12402 5.87701 5.12402C5.45737 5.12402 5.11719 5.46421 5.11719 5.88384C5.11719 6.30347 5.45737 6.64365 5.87701 6.64365Z" fill="#181818"/>
<path d="M7.53325 8.30918C7.95289 8.30918 8.29307 7.969 8.29307 7.54937C8.29307 7.12973 7.95289 6.78955 7.53325 6.78955C7.11362 6.78955 6.77344 7.12973 6.77344 7.54937C6.77344 7.969 7.11362 8.30918 7.53325 8.30918Z" fill="#181818"/>
<path d="M9.18169 9.97495C9.60133 9.97495 9.94151 9.63477 9.94151 9.21514C9.94151 8.7955 9.60133 8.45532 9.18169 8.45532C8.76206 8.45532 8.42188 8.7955 8.42188 9.21514C8.42188 9.63477 8.76206 9.97495 9.18169 9.97495Z" fill="#181818"/>
<path d="M10.8458 11.6385C11.2654 11.6385 11.6056 11.2983 11.6056 10.8787C11.6056 10.4591 11.2654 10.1189 10.8458 10.1189C10.4261 10.1189 10.0859 10.4591 10.0859 10.8787C10.0859 11.2983 10.4261 11.6385 10.8458 11.6385Z" fill="#181818"/>
<path d="M12.502 13.3043C12.9216 13.3043 13.2618 12.9641 13.2618 12.5445C13.2618 12.1248 12.9216 11.7847 12.502 11.7847C12.0824 11.7847 11.7422 12.1248 11.7422 12.5445C11.7422 12.9641 12.0824 13.3043 12.502 13.3043Z" fill="#181818"/>
<path d="M14.1583 14.9698C14.5779 14.9698 14.9181 14.6296 14.9181 14.21C14.9181 13.7904 14.5779 13.4502 14.1583 13.4502C13.7386 13.4502 13.3984 13.7904 13.3984 14.21C13.3984 14.6296 13.7386 14.9698 14.1583 14.9698Z" fill="#181818"/>
<path d="M15.8145 16.6334C16.2341 16.6334 16.5743 16.2932 16.5743 15.8736C16.5743 15.4539 16.2341 15.1138 15.8145 15.1138C15.3949 15.1138 15.0547 15.4539 15.0547 15.8736C15.0547 16.2932 15.3949 16.6334 15.8145 16.6334Z" fill="#181818"/>
<path d="M17.4708 18.2992C17.8904 18.2992 18.2306 17.959 18.2306 17.5394C18.2306 17.1197 17.8904 16.7795 17.4708 16.7795C17.0511 16.7795 16.7109 17.1197 16.7109 17.5394C16.7109 17.959 17.0511 18.2992 17.4708 18.2992Z" fill="#181818"/>
<path d="M19.127 19.9647C19.5466 19.9647 19.8868 19.6245 19.8868 19.2049C19.8868 18.7852 19.5466 18.4451 19.127 18.4451C18.7074 18.4451 18.3672 18.7852 18.3672 19.2049C18.3672 19.6245 18.7074 19.9647 19.127 19.9647Z" fill="#181818"/>
<path d="M20.7833 21.6283C21.2029 21.6283 21.5431 21.2881 21.5431 20.8685C21.5431 20.4488 21.2029 20.1086 20.7833 20.1086C20.3636 20.1086 20.0234 20.4488 20.0234 20.8685C20.0234 21.2881 20.3636 21.6283 20.7833 21.6283Z" fill="#181818"/>
<path d="M0.759815 13.2745C1.17945 13.2745 1.51963 12.9343 1.51963 12.5147C1.51963 12.0951 1.17945 11.7549 0.759815 11.7549C0.340181 11.7549 0 12.0951 0 12.5147C0 12.9343 0.340181 13.2745 0.759815 13.2745Z" fill="#181818"/>
<path d="M3.11138 13.2789C3.53102 13.2789 3.8712 12.9387 3.8712 12.5191C3.8712 12.0995 3.53102 11.7593 3.11138 11.7593C2.69175 11.7593 2.35156 12.0995 2.35156 12.5191C2.35156 12.9387 2.69175 13.2789 3.11138 13.2789Z" fill="#181818"/>
<path d="M5.46294 13.285C5.88258 13.285 6.22276 12.9448 6.22276 12.5252C6.22276 12.1056 5.88258 11.7654 5.46294 11.7654C5.04331 11.7654 4.70312 12.1056 4.70312 12.5252C4.70312 12.9448 5.04331 13.285 5.46294 13.285Z" fill="#181818"/>
<path d="M7.80669 13.2914C8.22633 13.2914 8.56651 12.9512 8.56651 12.5315C8.56651 12.1119 8.22633 11.7717 7.80669 11.7717C7.38706 11.7717 7.04688 12.1119 7.04688 12.5315C7.04688 12.9512 7.38706 13.2914 7.80669 13.2914Z" fill="#181818"/>
<path d="M17.1973 13.317C17.617 13.317 17.9571 12.9768 17.9571 12.5572C17.9571 12.1375 17.617 11.7974 17.1973 11.7974C16.7777 11.7974 16.4375 12.1375 16.4375 12.5572C16.4375 12.9768 16.7777 13.317 17.1973 13.317Z" fill="#181818"/>
<path d="M19.5411 13.3233C19.9607 13.3233 20.3009 12.9832 20.3009 12.5635C20.3009 12.1439 19.9607 11.8037 19.5411 11.8037C19.1214 11.8037 18.7812 12.1439 18.7812 12.5635C18.7812 12.9832 19.1214 13.3233 19.5411 13.3233Z" fill="#181818"/>
<path d="M21.8926 13.3297C22.3123 13.3297 22.6524 12.9895 22.6524 12.5699C22.6524 12.1502 22.3123 11.8101 21.8926 11.8101C21.473 11.8101 21.1328 12.1502 21.1328 12.5699C21.1328 12.9895 21.473 13.3297 21.8926 13.3297Z" fill="#181818"/>
<path d="M24.2364 13.3338C24.656 13.3338 24.9962 12.9937 24.9962 12.574C24.9962 12.1544 24.656 11.8142 24.2364 11.8142C23.8167 11.8142 23.4766 12.1544 23.4766 12.574C23.4766 12.9937 23.8167 13.3338 24.2364 13.3338Z" fill="#181818"/>
<path d="M12.5333 1.51963C12.9529 1.51963 13.2931 1.17945 13.2931 0.759816C13.2931 0.340181 12.9529 0 12.5333 0C12.1136 0 11.7734 0.340181 11.7734 0.759816C11.7734 1.17945 12.1136 1.51963 12.5333 1.51963Z" fill="#181818"/>
<path d="M12.5254 3.8668C12.9451 3.8668 13.2853 3.52662 13.2853 3.10698C13.2853 2.68735 12.9451 2.34717 12.5254 2.34717C12.1058 2.34717 11.7656 2.68735 11.7656 3.10698C11.7656 3.52662 12.1058 3.8668 12.5254 3.8668Z" fill="#181818"/>
<path d="M12.5176 6.21616C12.9373 6.21616 13.2774 5.87598 13.2774 5.45635C13.2774 5.03671 12.9373 4.69653 12.5176 4.69653C12.098 4.69653 11.7578 5.03671 11.7578 5.45635C11.7578 5.87598 12.098 6.21616 12.5176 6.21616Z" fill="#181818"/>
<path d="M12.5098 8.56333C12.9295 8.56333 13.2696 8.22315 13.2696 7.80352C13.2696 7.38388 12.9295 7.0437 12.5098 7.0437C12.0902 7.0437 11.75 7.38388 11.75 7.80352C11.75 8.22315 12.0902 8.56333 12.5098 8.56333Z" fill="#181818"/>
<path d="M12.4942 17.9584C12.9138 17.9584 13.254 17.6182 13.254 17.1985C13.254 16.7789 12.9138 16.4387 12.4942 16.4387C12.0746 16.4387 11.7344 16.7789 11.7344 17.1985C11.7344 17.6182 12.0746 17.9584 12.4942 17.9584Z" fill="#181818"/>
<path d="M12.4786 20.3055C12.8982 20.3055 13.2384 19.9653 13.2384 19.5457C13.2384 19.1261 12.8982 18.7859 12.4786 18.7859C12.0589 18.7859 11.7188 19.1261 11.7188 19.5457C11.7188 19.9653 12.0589 20.3055 12.4786 20.3055Z" fill="#181818"/>
<path d="M12.4786 22.6549C12.8982 22.6549 13.2384 22.3147 13.2384 21.8951C13.2384 21.4754 12.8982 21.1353 12.4786 21.1353C12.0589 21.1353 11.7188 21.4754 11.7188 21.8951C11.7188 22.3147 12.0589 22.6549 12.4786 22.6549Z" fill="#181818"/>
<path d="M12.4708 25.0021C12.8904 25.0021 13.2306 24.6619 13.2306 24.2422C13.2306 23.8226 12.8904 23.4824 12.4708 23.4824C12.0511 23.4824 11.7109 23.8226 11.7109 24.2422C11.7109 24.6619 12.0511 25.0021 12.4708 25.0021Z" fill="#181818"/>
</svg>
